<?xml version="1.0" encoding="UTF-8"?><svg id="Layer_1" xmlns="http://www.w3.org/2000/svg" viewBox="0 0 2902.18 2902.79"><defs><style>.cls-1{fill:#c3cdd5;}.cls-2{fill:#6f6f6f;}.cls-3{fill:#bcc5cc;}.cls-4{fill:#b6c2cb;}.cls-5{fill:#a7b7c4;}.cls-6{fill:#a5b6c3;}.cls-7{fill:#4f4f4f;}.cls-8{fill:#c7cfd6;}.cls-9{fill:#010101;}.cls-10{fill:#a0b4c3;}.cls-11{fill:#bcc8d0;}.cls-12{fill:#cfd7dd;}.cls-13{fill:#c1ccd4;}.cls-14{fill:#c3cdd4;}.cls-15{fill:#fcfcfc;}.cls-16{fill:#a9b8c4;}.cls-17{fill:#b3bdc4;}.cls-18{fill:#c0cad2;}.cls-19{fill:#c0cad3;}.cls-20{fill:#cfd6dc;}.cls-21{fill:#3e3e3e;}.cls-22{fill:#d2d9df;}.cls-23{fill:#bec8d1;}.cls-24{fill:#a8b4be;}.cls-25{fill:#555758;}.cls-26{fill:#3f3f3f;}.cls-27{fill:#bfc6cc;}.cls-28{fill:#a3b2be;}.cls-29{fill:#020202;}.cls-30{fill:#a4a4a4;}.cls-31{fill:#b8c6d0;}.cls-32{fill:#c5ced5;}.cls-33{fill:#fff;}.cls-34{fill:#c1ccd3;}.cls-35{fill:#c0c9d0;}.cls-36{fill:#bfc9d1;}.cls-37{fill:#b6bdc3;}.cls-38{fill:#bdc7d0;}.cls-39{fill:#a8b8c5;}.cls-40{fill:#b5c0c8;}.cls-41{fill:#b5c1ca;}.cls-42{fill:#c1cbd3;}.cls-43{fill:#5b5b5b;}.cls-44{fill:#050505;}.cls-45{fill:#bac5ce;}.cls-46{fill:#b6c4ce;}.cls-47{fill:#787979;}.cls-48{fill:#d0d8de;}.cls-49{fill:#c7cfd5;}.cls-50{fill:#c5cdd4;}.cls-51{fill:#b1bbc4;}.cls-52{fill:#686a6c;}.cls-53{fill:#bec7ce;}.cls-54{fill:#171717;}.cls-55{fill:#b9c4ce;}.cls-56{fill:#c4ced5;}.cls-57{fill:#c3ccd4;}.cls-58{fill:#929292;}.cls-59{fill:#bdbdbd;}.cls-60{fill:#bbc7d1;}.cls-61{fill:#b1c1cd;}.cls-62{fill:#d1d9df;}.cls-63{fill:#bfbfbf;}.cls-64{fill:#c6cfd6;}.cls-65{fill:#282828;}.cls-66{fill:#acacac;}.cls-67{fill:#bbc5ce;}.cls-68{fill:#f1f1f1;}.cls-69{fill:#c5ced4;}.cls-70{fill:#c5cfd6;}.cls-71{fill:#bac5cd;}.cls-72{fill:#c4cdd5;}.cls-73{fill:#d1d8de;}.cls-74{fill:#cad1d7;}.cls-75{fill:#8d9195;}.cls-76{fill:#030303;}.cls-77{fill:#b6bfc7;}.cls-78{fill:#a0b4c4;}.cls-79{fill:#bdc7cf;}.cls-80{fill:#434444;}.cls-81{fill:#c1cbd2;}.cls-82{fill:#a0b5c4;}.cls-83{fill:#a9b9c5;}.cls-84{fill:#c2cdd5;}.cls-85{fill:#bec9d1;}.cls-86{fill:#888;}.cls-87{fill:#a5adb3;}.cls-88{fill:#c4cbd0;}.cls-89{fill:#d0d7dd;}.cls-90{fill:#f4f4f4;}.cls-91{fill:#aab8c4;}.cls-92{fill:#979797;}.cls-93{fill:#5d5d5d;}.cls-94{fill:#ececec;}.cls-95{fill:#bac7d0;}.cls-96{fill:#f0eff0;}.cls-97{fill:#bfcad3;}.cls-98{fill:#a8b8c4;}.cls-99{fill:#b7c5d0;}.cls-100{fill:#b0b8be;}.cls-101{fill:#c7d0d6;}.cls-102{fill:#c9d1d7;}.cls-103{fill:#c2ccd4;}.cls-104{fill:#bcc7cf;}.cls-105{fill:#b7c5cf;}.cls-106{fill:#c2ccd3;}.cls-107{fill:#c0cbd3;}.cls-108{fill:#bac6cf;}.cls-109{fill:#b5b5b5;}.cls-110{fill:#c3ccd3;}</style></defs><path class="cls-29" d="M94.14,952.47c.51-.45,3.24-.56,4.94-1.99,81.92-68.87,176.98-138.57,263.27-202.8,3.66-2.72,22.53-17.66,24.75-17.22,1.75.35,4.12,4.34,2.67,6.59l-119.62,225.39,128,42.03c.73,1.3,1.39,2.63,1.78,4.03,1.41,4.97-9.36,40.18-12.34,48.24l-5.44,5.73v2l-305.99,213.99,144.02-248.96-140.03-47.03c-.73-.75-.73-2.08,0-4,3.88-9.54,5.89-18.85,14-26Z"/><path class="cls-29" d="M182.14,2146.47l313.99-241.03,6,2.12-117.93,227.73,171.94,61.15-231.99,164.03c-.61.92-1.28.9-2,0-15.38-19.04-29.63-38.2-44-58-2.48-2.53-2.48-3.86,0-4,2.37-1.44,1.58-3.48,2-4l-1.98-3.98c18.47-26.94,36.46-55.34,49.85-85.14l-135.55-43.93c-1.64-.77-2.41-2.42-2.32-4.96-11.3-4.59-6.6-6.44-8-10Z"/><path class="cls-29" d="M710.14,2692.47l53.96-89-153.94-55.97,321.97-245.02-1.1,9.88-116.83,220.98,171.92,61.09c-67.2,44.79-132.94,92.14-197.98,140.04-1.63,2.91-4.29,3.57-8,2-23.39-12.35-47.26-24.5-70-38-2.6-2.61-2.6-3.94,0-4v-2Z"/><path class="cls-29" d="M1608.14,8.47l12,2c2.65.04,5.37-.18,8,0l8,2c1.96.2,4.04-.22,6,0l8,2c1.93.24,4.07-.25,6,0l8,2c1.92.27,4.09-.27,6,0l8,2c1.89.28,4.12-.29,6,0l6,2c1.26.2,2.74-.21,4,0l8,2c1.25.22,2.75-.23,4,0l8,2c1.22.23,2.72-.16,4,0l6,2h4l8,2h2l6,2c1.18.25,2.72-.17,4,0l6,2h2c10.26,3.78,21.39,5.41,32,8,8.24,3.18,16.69,5.72,25.37,7.64l.63,2.36c2.94.98,5.81,1.26,8,2,2.03.06,3.37.73,4,2,15.37,5.14,30.37,11.82,46.55,14.45l3.43,5.55-367.97,255.99,144-248.95-154.01-53.07c-1.72-2.23,23.27-19.88,26-21.98-1.94-1.72-.61-3.06,4-4,26.6,1.59,53.34,5.46,80,6Z"/><path class="cls-29" d="M1284.14,10.47c6.32-.93,12.79-1.42,19.16-.78.37.04.62,1.24.84,2.78,47.67,11.11,108.08,36.47,156.8,52.2,2.22.72,4.84.62,5.19,3.78l-365.02,258.01-2.95-2.95,143.99-245.99-4.88-3.18c-35.29-9.14-70.24-26.66-105.13-35.86-1.6-.57-1.58-1.24,0-2,37.03-10.99,113.78-24.75,152-26Z"/><path class="cls-29" d="M1002.14,72.47c2.6-.24,3.93.43,4,2,31.49,11.98,64.4,21.88,96.41,32.59,1.39.47,18.36,2.4,13.59,7.39-.51.54-8.89,2.6-13.45,5.57-118.19,77.15-229.84,169.44-348.55,246.44-.77,3.78-5.9,4.46-4,0l141.18-241.87c2.31-5.38-2.88-6.38-7.18-6.13-1.71-.57-1.69-1.24,0-2,38.72-16.47,78.07-30.69,118-44Z"/><path class="cls-29" d="M310.14,562.47c39.52,9.08,86.48,29.78,127.07,41.96,8.93,2.68-2.74,4.94-6.56,7.54-92.86,63.32-182.94,131.33-274.51,196.5h-2c-2.6,2.65-2.99,1.56-2-2,43.37-85.85,94.83-166.76,152-244,4.01-2.84,6.01-2.84,6,0Z"/><path class="cls-29" d="M4.14,1378.47c48.05,14.47,96,34.92,143.91,49.1,3.31.98,6.69,1.02,10.09.91,1.1,4.8-.87,3.24-2.62,4.45-48.93,33.83-97.82,67.83-145.38,103.54-4.37-.1-4.49,4.7-6.06-.91-7.04-25.3-3.08-125.19-1.94-157.09.57-1.75,1.24-1.72,2,0Z"/><path class="cls-29" d="M36.14,1750.47c47.25,12.46,100.86,34.95,148.42,50.59,5.15,1.69,14.59.56,6.96,5.86-39.42,27.43-79.37,54.2-117.38,83.54-1.05,5.96-3.53,4.94-6,0-13.77-44.9-26.19-94.03-36-140,.83-3.79,1.82-2.92,4,0Z"/><path class="cls-29" d="M20.14,1602.47c37.08-19.43,75.16-63.67,111.92-85.08,2.62-1.53,3.95-4.01,8.07-2.91,2.86,2.97-8.78,23.72-10.95,28.03-31.44,62.69-67.73,123.18-99.04,185.96-1.02,1.95-2.35.62-4-4-6.97-36.8-11.54-74.78-16-112-.12-2.46.55-3.79,2-4,2.38-2.12,5.04-4.12,8-6Z"/><path class="cls-33" d="M190.14,2156.47l142,46.02c.5,2.78-.53,4.95-1.56,7.43-6.99,16.73-39,70.24-50.44,84.56-1.63.92-4.2,2.31-6,2l-2-2-10-14-8-12-4-6-20-30-4-6-6-10-10-16-4-6-2-4-6-10-2-4-6-10v-4c-.16-1.33-3.53-5.13,0-6Z"/><path class="cls-29" d="M466.14,2510.47c-3.68,2.47-4.55.2-7-1.87-18.69-15.74-38.16-36.26-55-54.13-2.12-3.32-1.99-5.04,2-4,36.71-36.96,97.55-67.64,136.15-104.85,6.81-5.96,9.55.06,6.96,6.95-24.57,47.6-52.24,93.94-76.16,141.85-2.4,4.81-6.26,10.85-6.96,16.04Z"/><path class="cls-29" d="M28.14,1194.47c13.09-10.39,58.75-47.75,70.05-52.95,2.07-.95,3.65-1.42,5.94-1.04l-.08,4.88-93.91,179.11c-1.69.52-2.35-1.48-2-6,4.06-39.46,7.5-78.78,14-118,1.78-4.62,3.78-6.62,6-6Z"/><path class="cls-29" d="M866.14,2776.47c9.59-.63,93.17-75.82,97.98-71.99l.53,7.36c-15.9,26-27.71,56.49-42.52,82.63-.66,1.16-4.13,5.55-4.95,5.63-16.81-7.64-34.23-14.06-51.05-21.63-1.22-.59-1.2-1.26,0-2Z"/><path class="cls-25" d="M10.14,1324.47c-1.24,1.83-1.54,3.9-2,6h-2c.44-4.63,1.73-9.38,2-12l2,6Z"/><path class="cls-68" d="M1620.14,10.47c-3.78-.06-9.82,1.37-12-2,3.78.08,9.82-1.38,12,2Z"/><path class="cls-24" d="M30.14,1728.47c.16,1.96-.24,4.07,0,6h-2c-.67-3.34-1.36-6.63-2-10l4,4Z"/><path class="cls-68" d="M1650.14,14.47l-8-2c3.68.41,7.14,1.89,8,2Z"/><path class="cls-68" d="M1664.14,16.47l-8-2c3.57.46,6.91,1.85,8,2Z"/><path class="cls-68" d="M1678.14,18.47l-8-2c3.48.5,6.76,1.81,8,2Z"/><path class="cls-68" d="M1702.14,22.47l-8-2c3.37.57,6.29,1.69,8,2Z"/><path class="cls-68" d="M1714.14,24.47l-8-2c3.27.59,6.13,1.65,8,2Z"/><path class="cls-68" d="M1736.14,28.47l-8-2,8,2Z"/><path class="cls-68" d="M1724.14,26.47l-6-2,6,2Z"/><path class="cls-68" d="M1690.14,20.47l-6-2c3.39.52,5.69,1.95,6,2Z"/><path class="cls-78" d="M1116.14,42.47c-1.32.1-2.68-.07-4,0-.01-.12-3.64-1.8-.96-2.03l4.96,2.03Z"/><path class="cls-82" d="M1124.14,40.47c-1.3.15-2.68-.1-4,0-.01-.15-3.53-1.9-.96-2.03l4.96,2.03Z"/><path class="cls-68" d="M1754.14,32.47l-6-2,6,2Z"/><path class="cls-68" d="M1744.14,30.47l-6-2c2.93-1.46,5.69,1.93,6,2Z"/><path class="cls-28" d="M4.14,1374.47c-.32,1.04.21,2.75,0,4h-2c.07-2-.08-4.01.02-6l1.98,2Z"/><path class="cls-33" d="M2756.14,820.47c4.08,5.49,9.71,14.67,10,22,4.32,4.55.94,9.38-2.67,13.73,2.25-1.91,4.19-1.81,6.67.27,1.21.37,3.05,1.99,4,2,2.4,3.57,4.4,7.57,6,12l2,4,6,14,8,20c1.46,3.38,2.13,6.71,2,10,7.27,14.58,14.08,30.18,18,46l.24,5.5-32.93,25.67,45.06,14.27c2.92,1.06,4.79,3.49,3.64,6.57l2,2c7.99,19.61,13.99,39.61,18,60,1.96.16,1.06,2.39,0,4,.23.95-.33,2.13.02,2.97.41.96,1.02,1.14,1.98,1.03.77.76.77,2.1,0,4,.15,1.95-.67,4.18,2,4,.77.76.77,2.1,0,4,.15,1.95-.67,4.18,2,4,.77.76.77,2.1,0,4,.15,1.95-.67,4.18,2,4,.77.76.77,2.1,0,4,.08.97-.13,1.98.02,2.97l1.98,1.03c1.63.5,1.3,2.73,0,4,5.96,12.18,7.96,24.18,6,36l-.47,5.77c-23.83,40.84-47.36,81.95-70.6,123.31l80.85-55.05,4.22,1.97,2.02,8.99c.28,1,1.08,1.1,1.98,1.01,1.76,2.37,1.31,5.39,0,8,.07,2.63-1.01,6.61,2,8,1.65,1.47,1.08,4.09,0,6,1.8,1.44,2.96,3.98,2,6,2.09,2.51,1.28,6.91,0,10,.15,3.21-1.26,8.29,2,10,1.79,3.14,1.36,6.8,0,10,.06,3.21-1.2,8.32,2,10,1.39,2.54,1.36,5.59,0,8,2.07,2.94,3.33,8.4,2,12,1.89,3.82,1.35,9.94,0,14,1.97,3.67,3.4,9.73,2,14,1.93,2.99,1.38,9.02,0,12,1.36,1.39.74,3.91-.39,5.38l-61.1,47.65c-1.49,2.69,53.09,19.23,57.92,20.47l1.58,4.5,4.39,1.02c1.36,16.02,1.97,33.19-.39,48.98,1.38,8.86.05,19.24-2,28,1.45,4.16,1.8,9.79,0,14,1.75,3.53.84,10.55-2,14,1.38,4.46,1.43,9.55,0,14-3.48,2.22-1.79,8.21-2,12,1.31,3.12,1.99,7.33,0,10,1.62,2.84-.38,7.35-2,10,1.4,2.33,1.39,5.66,0,8-3.23,1.7-1.89,6.79-2,10,1.31,3.02,2.15,7.67,0,10,1.32,1.72-.19,4.89-2,6,1.17,2.99.71,8.13-2,10,1.07,3.63.4,5.63-2,6,1.11,2.71-.39,7.73-1.56,10.55l-33.47,56.99c6.64-5.41,13.6-10.5,21.29-14.64l5.74,1.1c.79.28,1.45.61,1.65,1.12,2.93,7.39-20.17,99.18-23.87,113.31-3.6,13.75-23.84,88.12-28.71,91.77-.88.66-2.09.33-3.08-.19-2.61.37-5.23.65-7.84.63s-5.1-.11-7.49-.73c-18.22-4.79-108.53-33.27-113.68-42.06-1.28-2.18.85-6.35,3.94-11.09,38.32-70.79,75.63-141.38,111.91-211.79l-248.5,189.47c-5.67,2.72-8.46-1.42-8.35-12.42-2.15-7.7-2.79-18.37-4.94-26.06-7.65-27.47-18.68-53-32.18-77.97l301.1-212.01-171.92-61.09,116.83-220.98,1.1-9.88-143.02,107.97c-4.53.83-2.76-1.98-2.97-4.95-1.58-21.67-1.45-39.92-6.21-61.82-2.6-12-6.78-25.19-11.47-36.59l233.67-166.65-171.99-59.99c28.86-58.8,60.44-116.54,92-173.97,1.22-.24,3.09.36,4,0Z"/><path class="cls-29" d="M2552.14,1824.47c.78,2.78,1.72,11.34,4.97,9.98l257.01-195.97c4.36,3.52-8.31,24.77-10.94,30.03-33.87,67.77-73.28,133.04-107.06,200.91,40.99,16.21,83.31,31.63,126.01,43.04,3.83-3.3,5.16-2.64,4,2-6.79,19.43-13.56,38.91-20.82,58.19l-7.18,7.81-295.99,207.99,143.94-249.01-90.93-31.01c-2.15.15-.59,25.44-.94,29.19-.25,2.64-2.02,4.38-2.08,4.84,1.09-10.35-1.47-23.15-.1-33.1,1.75-12.73,6.62-19.85,6.19-36-.29-11.04-4.74-19.64-5.99-27.99-.99-6.59.44-14.16-.1-20.9Z"/><path class="cls-29" d="M2100.14,158.47l7.85-.99,76.15,41.04c-1.14,1.72-1.19,4.27-2,5.95-9.83,20.34-24.91,40.84-34,61.97l173.99,60-364.99,257.99-1.35-5.27,142.35-246.67-151.98-52.99,153.98-121.03Z"/><path class="cls-29" d="M2594.14,558.47c2,3.3,2,5.3,0,6,2.25,4.04.28,9.56-5.89,16.57,11.36,2.69,21.32,7.16,29.89,13.43,7.84,3.32,18,19.6,23.63,27.37,15.76,21.75,30.21,45.78,44.37,68.63.86,2.56.94,3.66-2,4-90.55,63.51-180.04,129.34-271.37,191.63-3.75,2.56-22.01,16.38-24.63,14.35l144.13-248.8-152.11-54.15,143.98-113.03,8.92-.04c20.92,24.26,41.19,48.95,61.08,74.04Z"/><path class="cls-29" d="M1578.14,2894.47c1.36-2.33,7.69-10.12,6-11.98l-153.96-53.02,318.94-245.06c4.2-1,4.64,4.77,3.52,7.43l-118.51,224.6,140,46.03c5.39.72,4.97,2.19,0,4-3.02,1.71-6.07,3.34-9.23,4.69s-6.29,2.63-9.54,3.31c-45.26,9.5-93.3,18.74-139.23,17.99-5.95.75-12.04,1.33-18,2-4.21-.14-8.21.53-12,2-2.62.27-5.38-.25-8,0-1.72-.59-1.7-1.25,0-2Z"/><path class="cls-29" d="M1888.14,2830.47c-30.61-10.77-62.7-19.52-91.96-33l317.28-244.72c5.18-2.08,6.53,2.34,5.19,7.08l-118.51,224.61c3.37.64,6.48,1.99,10,2.02,4.57.3,4.28,2.53,0,4l-116,42c-4.03.89-6.03.23-6-2Z"/><path class="cls-29" d="M1948.14,88.47c17.88,6.19,36.49,12.87,54,20,14.65,5.96,29.57,13.38,44,20,1.28.59,1.26,1.26,0,2l-215.99,151.99c-.88-3.73,1.25-5.53,2.7-8.28,31.97-60.56,79.22-122.32,107.29-183.71-.63-4.27.04-5.61,2-4,.6.2,1.4-.2,2,0l4,2Z"/><path class="cls-29" d="M2734.14,2126.47c-10.58,19.8-20.19,39.95-31.66,59.34-27.94,47.25-58.82,92.64-91.28,136.87l-9.07-.22-84.82-29.87-1.16-4.09c15.85-9.98,30.95-21.8,45.78-33.25,54.56-42.14,117.29-85.48,168.21-130.79h2c2.81-2.65,3.84-1.53,2,2Z"/><path class="cls-29" d="M2202.14,2692.47c-4.64,2.13-7.31,1.46-8-2l-12-4.02,5.05-5.92,310.94-240.06c3.23-.38,8.14.24,7.77,4.69s-52.94,56.05-60.71,63.37c-73.67,69.26-156.94,131.02-243.05,183.95Z"/><path class="cls-29" d="M2488.14,436.47v2l-151.99,103.99,91.99-157.99c-1.48-3.68-.15-4.35,4-2,18.86,17.47,38.04,35.63,56,54Z"/><path class="cls-29" d="M2872.14,1154.47c5.04,25.82,8.15,52.17,13.84,77.87l-3.84,2.13-93.99,63.99c-.37-3.55,2.1-6.32,3.68-9.3,22.19-42.06,50.93-90.32,76.31-130.69.79-4.34,2.13-5.68,4-4Z"/><path class="cls-76" d="M2902.14,1450.47c.36,2.75-1.64,2.75-6,0-15.34-3.52-47.38-14.64-62-21.08-2.45-1.08-4.88.09-3.99-3.9l67.99-53.02c.57-1.75,1.24-1.72,2,0,1.14,25.99,1.86,51.96,2,78Z"/><path class="cls-76" d="M2834.14,1012.47v4h-2c-7.89-6.58-52.08-15.91-54-18.01-.71-3.53,1.82-4.92,3.97-7.01,9.62-9.38,24.77-16.64,34.03-26.97.57-1.75,1.24-1.72,2,0,5.67,15.85,10.84,31.97,16,48Z"/><path class="cls-44" d="M2886.14,1658.47c.63,13.66-3.86,30.26-6,44-1.03,2.99-2.36,4.33-4,4-5.36,3.55-11.29,6.59-16.64,10.36-2.65,1.87-21.04,19.13-19.4,10.61l44.03-74.98c3.56-2.55,3.71,2.92,2,6Z"/><path class="cls-15" d="M2600.14,566.47l6,8,2,2c4.64,4.33,7.31,8.99,8,14,.68,1.33,1.34,2.67,2,4-4.58-1.94-32.63-8.25-33.93-10.09-1.71-7.44,8.19-14.6,9.93-19.91,1.02-2.1,3.02-1.44,6,2Z"/><path class="cls-54" d="M2770.14,856.47c-1.26,1.33-14.23,9.67-15.99,7.99,1.23-6.73,11.78-15.3,11.99-21.99.57-1.75,1.24-1.72,2,0,1.56,4.36,6.59,9.15,2,14Z"/><path class="cls-14" d="M2818.14,964.47h-2c-5.28-15.5-12.48-30.64-18-46,.57-1.75,1.24-1.72,2,0,6.24,15.28,12.34,30.18,18,46Z"/><path class="cls-64" d="M2872.14,1154.47c-1.19,1.32-3.09,2.56-4,4,1.38-12.41-4.08-24.13-6-36,.57-1.75,1.24-1.72,2,0,3.1,10.79,5.84,20.95,8,32Z"/><path class="cls-96" d="M1598.14,2894.47c-3.27.37-7.39,1.52-12,2,2.25-3.54,8.23-1.71,12-2Z"/><path class="cls-61" d="M2800.14,918.47h-2c-1.19-3.31-1.09-7.35-2-10,1.82,4,2.54,6.43,4,10Z"/><path class="cls-96" d="M1868.14,2842.47l2-2c-.4.84-1.12,1.73-2,2Z"/><path class="cls-96" d="M1840.14,2850.47l2-2c-.14.04-.77,1.67-2,2Z"/><path class="cls-96" d="M1576.14,2898.47c-.02-1.3,1.85-1.68,2-2-.14.01-.45,1.86-2,2Z"/><path class="cls-17" d="M1788.14,40.47c11.22,2.74,21.92,3.36,32,8-2.21,0-5.01-.54-6,2-8.5-2.84-19.18-4.33-26-10Z"/><path class="cls-40" d="M1948.14,88.47l-4-2c1.81.61,3.11,1.69,4,2Z"/><path class="cls-29" d="M1648.14,2242.47c10.06,5.7,19.03,10.92,30,16l-8.45,4.55c-30.73,61.71-65.89,121.25-95.55,183.42l174,60-367.99,256.01,143.99-249.98-153.96-53.01,277.96-217Z"/><path class="cls-29" d="M280.14,1520.47c-1.34,1.97-2.67,2.63-4,2-42.49,27.52-85.42,66.01-127.92,91.08-2.64,1.55-3.96,4-8.07,2.91l144.06-248.9-150.68-51.47-3.34-2.62c1.08-2.75,5.13-2.33,5.96-3q.87,1.24,0,0c8.48-6.86,15.56-16.15,26-20,1.54.26,2.21-.41,2-2,18.37-22.08,59.05-41.51,80.09-62.96l3.91-1.04c1.97-.09,2.64-.76,2-2,7.88-6.05,16.56-12.28,24-18,1.99-.07,2.65-.74,2-2,7.87-6.05,16.59-12.29,24-18,1.99-.07,2.65-.74,2-2,22.85-17.63,45.1-36.4,68-54-29.33,131.34-60.21,263.36-90,392Z"/><path class="cls-29" d="M1132.14,2862.47l218.14-166.86c6.43-5.04,9.99-4.14,8.38,4.23-25.76,51.48-56.12,100.99-81.56,152.59-3.95,8-8.03,15.55-10.96,24.04-2.5,3.09-5.87,7.45-2.84,10.8-1.56,7.35-28.15,6.61-29.16-.8l-8-2c-.71,5.3-2.28,5-4,0l-8-2c-.71,5.3-2.28,5-4,0l-6-2c-.92,5.58-4.12,5.3-6,0l-6-2c-.65,5.36-1.71,4.79-4,0l-8-2c-.65,5.36-1.71,4.79-4,0l-6-2c-.58,5.17-1.82,4.64-4,0l-6-2c-.39,4.77-2.1,4.33-4,0l-4-2c-.47,4.64-2.57,4.48-4,0l-6-2c-1.14,3.87-2.9,3.9-4,0l-6-2c-.37-.83.25-2.8,0-4Z"/><path class="cls-91" d="M1318.14,2894.47c2.63-.11,5.37-.11,8,0v2c-5.86-.52-12.08.4-17.99-.02v-1.96c3.31-.14,6.67.12,9.99-.02Z"/><path class="cls-29" d="M1556.14,648.47l103.97-172.89-153.96-54.1,321.98-247,.55,9.32-118.49,221.68c52.76,20.36,106.71,37.68,160.36,55.58,2.79.93,17.09,1.63,13.57,7.41-.18.29-2.69-1.42-5.01-.2-2.95,1.56-6.6,4.54-9.61,6.57-97.8,65.96-191.2,138.8-288.92,204.93l-2.45,8.7c-1.79-3.52-5.31-7.87-5.52-8.37-.59-1.42,2.41-5.18,1.53-5.63s-3.96.82-5.45-.43c-1.87-1.57-4.28-10.63-2.6-13.52-9.22,1.42-4.52-3.22-6.07-6.46-.29-.6-2.72-3.71-3.9-5.6Z"/><path class="cls-33" d="M1490.14,2.47c9.65-.41,26.07-.74,34,4,1.08,1.33,1.44,2.76.89,4.32l-20.29,15.67,146.43,50.49c3.46,1.18,4.32,4.5,3.74,7.78l-133.83,231.36,349.61-242.72c-12.88-3.6-26.47-8.06-40.77-13.36l-3.78-5.54,1.05-3.48c34.61,7.41,69.35,19.12,102.95,31.48,7.5,1.71,10.83,4.37,10,8-1.64,14.09-7.13,27.68-16.47,40.77-28.62,46.48-56.87,93.17-84.75,140.07l201.81-141.92c1.42-1.05,3.22-.69,5.41,1.09,8.83,2.55,17.5,5.89,26,10,9.19,4.12,17.86,8.79,26,14,.19,1.19,1.54,2.71,2,4l1.39,3.99-146.49,115.14c46.85,17.23,94.22,34,142.12,50.31,3.45,1.18,4.32,4.49,3.75,7.78l-138.28,239.96,350.31-247.61-163.81-57.02c-3.94-3.1-4.24-3.42-3.46-8.57,1.1-7.31,24.19-45.39,30.13-54.28l6.35-3.7c2.29-2.26,4.59-.02,6,0,7.27,1.98,13.94,5.31,20,10l16,10c3.21,1.65,5.21,3.65,6,6,1.53,2.13,3.53,3.46,6,4,1.11.84,2.88,1.17,4,2,6.34,1.88,12.34,5.21,18,10l6,4,26,18,6,4,2,2,14,10,6,4,2,2c3.03,1.27,5.7,3.27,8,6l8,6,10,8,8,6,2,2,8,6,2,2,10,8,2,2,10,8,2,2,10,8,2,2,16,14,6,6c4.34,3,5.67,5.67,4,8l2.77,3.2-82.18,141.14,135.15-92.27,4.26,1.93,8,8,18,18,12,14c.85.62.82,1.29,0,2l-2,4,1.39,3.99c-46.05,35.7-91.53,71.69-136.45,107.97l142.27,50.65c3.42,1.21,4.27,4.51,3.68,7.79l-136.83,236.2c89.51-62.51,179.28-125.23,269.32-188.16l16.62-8.43c2.12-2.43,2.81-1.87,4.4.82l25.6,43.18,6,10,14,26c2.74,3.73,4.07,7.73,4,12-.3,1-1.37,3.17-2,4,3.25,2.78,2.55,5.04-.76,7.3l-270.94,208.4,144.74,52.71c3.68,1.38,4.49,4.64,3.41,8.21l-48.82,81.41c-4.4,2.71-7.15,3.9-10.55-1.29-65-84.63-164.02-127.91-264.9-152.78l-1.07-5.05,88.1-166.58-.05-1.82c-69.01,53.46-138.34,106.28-208,158.48-80.21-3.2-165.07,2.69-241.51,24.57-3.32-.99-4.44-3.64-4.33-7.05,19.05-35.56,37.62-71.28,55.71-107.14-104.15,78.82-207.92,158.24-311.3,238.26l22.77,9.32c4.78,4.04,2.8,8.63-.9,12.73-17.15,17.54-29.61,39.52-40.84,61.17-2.42,3.71-6.32,3.77-10.29,3.3l-165.44-53.6c-8.86-4.3-4.16-13.28.71-19.4,126.31-109.51,169.83-294,105.89-448.67l.36-4.46c-1.76-4.17-1.89-7.91-.39-11.23,98.91-70.72,197.79-140.98,296.63-210.78-52.12-16.7-104.03-34.52-155.74-53.47-7.54-1.13-11.79-4.31-11.33-10.62l117.57-219.5c-102.33,76.93-208.72,158.72-309.73,237.53l144,50.6c3.45,1.2,4.27,4.53,3.68,7.81l-102.02,169.65h-4.67s-4.77.01-4.77.01c-17.58-23.48-37.81-44.35-60.68-62.6-1.12-8.17,1.74-17.06,8.58-26.66-8.4,6.76-16.97,11.46-25.69,14.09-39.67-25.77-59.51-38.65-59.51-38.65l.98-5.25,68.7-46.27-166.58-57.09c-3.41-1.13-4.36-4.38-3.86-7.67l117.39-219.6-310.27,237.39,100.79,35.74.92,4.57c.04,2.84-5.15,2.51-8,2l-6.62,3.23-62.49-5.32c-34.46,2.28-59,1.39-91.55-8.68-7.82-2.42-78.51-26.77-80.85-30.4-1.49-2.3-2.31-4.23-1.32-6.93l117.37-219.64-311.97,237.94c17.99,3.73,34.47,10.33,49.43,19.79,3.27,1.54,3.94,2.88,2,4l-8.25,2.96c-67.62,2.48-135.26,2.17-202.91-.92l-1.74-5.13,103.28-199.48-310.04,238.24c28.93,11.14,59.82,21.74,92.67,31.81l4.03,3.74c-12.84,60.53-26.13,121.12-41.27,181.18l-45.3,78.08c7.91-6.79,15.75-10.29,23.54-10.48,2.61-2.64,3.34-1.52,2,2l.7,7.38c-13.58,65.65-27.77,131.12-42.57,196.41l-4.14,6.21c-.65,1.45-1.95,3.54-3.01,3.22-15.95-4.71-124.21-37.5-127.31-43.49-.77-1.48-.69-3.23-.56-4.86l119.04-223.95c.28-.55-8.97,5.94-10.21,6.86-92.53,68.45-184.03,139.75-274.73,211.49-3.06,2.42-4.84,2.03-7.22-1.27h-2c.13-7.42,2.13-14.75,6-22,.24-3,1.55-6.11,4-8,14.07-38.01,29.24-76.3,49.53-111.46l2.47-.54c.02-1.31.68-1.98,2-2,3.74-3.94,7.53-7.82,11.52-11.49s7.96-7.28,12.27-10.44c83.09-60.84,166.94-121.98,251.63-179.54-38.1-13.91-76.48-26.87-115.16-38.88l-6.27-5.65c-2.07-1.9-.74-5.23,4-10l6-8,2-2,6-8,2-2,10-12,2-2,8-10,2-2,10-12,6-6,12-14,6-6,22-24,8-8,2-2,2-2,2-2,2-2,2-2,2-2,2-2,2-2,6-4c1.25-2.5,5.1-6.58,8-6,26.82-22.11,54.86-42.84,84.12-62.2,72.11-56.06,146.1-109.2,221.97-159.41l-.09-4.4c.81-4.09,4.81-7.43,12-10l12-6,18-10,46-22,4-2c13.37-6.14,26.71-11.47,40-16,7.37-5.44,14.04-.83,10.54,8.27l-135.1,231.49c-2.33,3.13-5.9,7.25-9.44,8.24-1.45,3.27,2.58,4.34,4,0l8.41-8.68c112.17-81.71,225.07-162.24,338.7-241.58l7.31-3.29c-32.25-9.24-64.43-20.38-96.56-33.42l-5.86-5.04c30.68-14.23,64.5-24.71,98-30,1.13-1.59,2.49-1.15,4,0,.95-.23,2.13.33,2.97-.02.96-.41,1.14-1.02,1.03-1.98.76-.77,2.1-.77,4,0,1.95-.15,4.18.67,4-2h4c3.26-.37,3.26-1.7,4-2,1.76-.91,3.1-.91,4,0l4.7-1.22c34.09,9.08,68.43,21.37,101.88,33.4,4.09,1.47,7.84,5.31,6.19,10.08l-138.3,236.94,351.2-248.24c-47.45-19.14-97.25-37.08-147.03-51.22l-6.64-5.74c-1.22-4.25,6.46-5.14,10-4,1.64-1.95,5.62-1.25,8,0,3.83-1.96,9.75-3.34,14-2,3.97-1.93,10.03-1.36,14,0,4.24-2.09,11.11-3.3,16-2,5.43-1.88,12.61-1.42,18,0,8.65-2.19,19.2-3.4,28-2,25.79-2.23,52.17-1.77,78,0Z"/><path class="cls-103" d="M1104.14,44.47c-32.96,8.47-66.34,17.59-98,30-1.36-.52-3.14-.17-4-2,30.07-10.02,69.07-25.24,100-30,1.4.15,2.24.41,2,2Z"/><path class="cls-16" d="M1490.14.47c1.75.57,1.72,1.24,0,2-25.95.51-52.06-.69-78,0-1.75-.57-1.72-1.24,0-2,25.5-.56,52.52-.68,78,0Z"/><path class="cls-48" d="M1528.14,2.47c-.58,2.24-2.44,2.8-4,4l-34-4V.47c12.88.35,25.23,1.23,38,2Z"/><path class="cls-18" d="M840.14,136.47c-16.21,7.92-29.23,14.86-46,22,16.48-8.97,28.99-14.84,46-22Z"/><path class="cls-22" d="M1412.14.47v2c-8.31.22-18.89,1.59-28,2-1.34-.23-2.2-.43-2-2,9.23-.38,19.96-1.78,30-2Z"/><path class="cls-101" d="M386.14,468.47c7.19-7.96,14.18-15.88,22-24-6.85,7.31-14.95,16.24-22,24Z"/><path class="cls-62" d="M1364.14,2.47c1.35.22,2.21.42,2,2-3.82.22-10.36,1.63-16,2-1.75-.57-1.72-1.24,0-2,3.32-.23,8.58-1.7,14-2Z"/><path class="cls-48" d="M1336.14,4.47c1.75.57,1.72,1.24,0,2-3.28.27-9.42,1.49-14,2-1.75-.57-1.72-1.24,0-2,3.62-.32,8.74-1.59,14-2Z"/><path class="cls-77" d="M764.14,174.47c-3.2,2.07-9.15,7.07-12,10-1.99-.12-4.01.08-6,0,3.43-6.29,12.36-7.23,18-10Z"/><path class="cls-85" d="M794.14,158.47c-5.78,3.15-11.56,6.81-18,10,6.71-3.81,9.38-6.33,18-10Z"/><path class="cls-64" d="M368.14,488.47c3.73-4.18,7.83-9.43,12-14-3.67,4.09-7.96,9.49-12,14Z"/><path class="cls-14" d="M352.14,506.47c3.11-3.63,6.59-8.08,10-12-2.81,3.16-6.41,7.93-10,12Z"/><path class="cls-5" d="M1382.14,2.47l2,2c-5.96.27-12.05-.35-18,0l-2-2c5.95-.33,12.04.24,18,0Z"/><path class="cls-18" d="M884.14,116.47v2c-6.69.39-26.09,11.95-34.01,15.07-2.16.85-4.78.44-5.99.93,13.33-6.51,26.2-12.13,40-18Z"/><path class="cls-16" d="M1350.14,4.47v2c-4.62.3-9.4-.38-14,0v-2c4.61-.36,9.38.32,14,0Z"/><path class="cls-16" d="M1322.14,6.47v2c-2.59.29-5.44-.34-8,0l-2-2c3.28-.32,6.72.29,10,0Z"/><path class="cls-4" d="M776.14,168.47c-4.72,2.68-7.53,3.8-12,6,5.16-3.33,7.36-3.7,12-6Z"/><path class="cls-52" d="M1132.14,36.47v2c-1.1-.29-2.73.19-4,0,1.06-.43,1.87-1.37,4-2Z"/><path class="cls-4" d="M844.14,134.47c-.94.38-2.34,1.3-4,2,1.32-.64,2.64-1.34,4-2Z"/><path class="cls-41" d="M362.14,494.47c2.17-2.44,4.38-4.19,6-6-2.1,2.35-4.54,4.32-6,6Z"/><path class="cls-41" d="M380.14,474.47c2.16-2.41,4.33-4.16,6-6-2.15,2.38-4.31,4.15-6,6Z"/><path class="cls-72" d="M2290.14,268.47c-10.22-6.57-16.45-10.85-26-18,10.66,6.49,16.52,11.16,26,18Z"/><path class="cls-106" d="M2714.14,738.47c-8-12.93-16.22-25.86-24.37-38.73-1.62-2.55-.65-6.41-5.63-5.27.7-.49,1.24-3.02,2-4,10.15,16.37,18.9,30.93,28,48Z"/><path class="cls-70" d="M2418.14,370.47c-4.82-4.41-10.75-9-16-14,6.31,5.08,10.13,8.89,16,14Z"/><path class="cls-42" d="M2312.14,284.47c-6.44-4.14-7.96-5.02-14-10,4.3,3.2,9.65,6.8,14,10Z"/><path class="cls-110" d="M2496.14,446.47c-2.71-2.45-6.53-3.93-8-8v-2c3.76,3.85,6.38,8.33,8,10Z"/><path class="cls-1" d="M2376.14,334.47c-4.1-3.12-5.84-4.39-10-8,4.11,3.16,5.6,4.01,10,8Z"/><path class="cls-103" d="M2400.14,354.47c-4.1-3.15-5.59-4-10-8,4.36,3.3,5.21,3.29,10,8Z"/><path class="cls-74" d="M2346.14,310.47c-5.3-3.61-5.09-3.22-10-8,5.47,3.64,5.33,3.79,10,8Z"/><path class="cls-107" d="M2388.14,344.47c-4.24-3.22-5.56-3.96-10-8,4.24,3.22,5.56,3.96,10,8Z"/><path class="cls-36" d="M2720.14,748.47c-2.35-3.79-3.56-5.41-6-10,2.42,3.91,3.44,4.85,6,10Z"/><path class="cls-107" d="M2224.14,224.47c-7.07-3.73-9.82-5.67-16-10,7.7,4.01,8.78,3.98,16,10Z"/><path class="cls-95" d="M2234.14,230.47c-1.2-.25-3.19.38-4,0-2.41-1.13-4.3-4.59-6-6,5,2.64,4.74,1.31,10,6Z"/><path class="cls-81" d="M2336.14,302.47c-4.04-2.69-4.32-2.91-8-6,4.08,2.71,3.76,1.87,8,6Z"/><path class="cls-19" d="M2354.14,316.47c-3.21-2.38-4.15-2.53-8-6,3.93,2.67,3.97,2.33,8,6Z"/><path class="cls-14" d="M2364.14,324.47c-2.99-2.26-4.32-2.77-8-6,2.77,2.16,4.25,2.61,8,6Z"/><path class="cls-14" d="M2328.14,296.47c-4-2.66-4.44-3.08-8-6,5.04-.41,5.96,4.29,8,6Z"/><path class="cls-79" d="M2258.14,246.47c-5.19-3.2-12.91-6.23-18-10l1.04-2.01c6.69,2.17,11.64,7.85,16.96,12.01Z"/><path class="cls-104" d="M2264.14,250.47c-1.48-1.11-3.36-1.94-6-4,2.33,1.44,4.53,3.1,6,4Z"/><path class="cls-79" d="M2296.14,272.47c-1.51-1.1-3.72-2.35-6-4,2.6,1.67,2.72,1.1,6,4Z"/><path class="cls-67" d="M2318.14,288.47c-3.98.64-4.7-3.05-6-4,2.59,1.67,2.69,1.04,6,4Z"/><path class="cls-4" d="M2738.14,786.47c-1.17-4-2.54-8.1-4-12,3.49,5.41,6.08,4.92,4,12Z"/><path class="cls-41" d="M2402.14,356.47c-.73-.58-1.27-1.44-2-2,.67.66,1.32,1.35,2,2Z"/><path class="cls-41" d="M2390.14,346.47c-.74-.56-1.27-1.45-2-2,.7.63,1.31,1.37,2,2Z"/><path class="cls-41" d="M2378.14,336.47c-.74-.56-1.27-1.44-2-2,.7.63,1.31,1.37,2,2Z"/><path class="cls-41" d="M2366.14,326.47c-.74-.56-1.27-1.45-2-2,.7.63,1.29,1.39,2,2Z"/><path class="cls-41" d="M2356.14,318.47c-.73-.57-1.28-1.46-2-2,.7.63,1.3,1.38,2,2Z"/><path class="cls-41" d="M2320.14,290.47l-2-2c.7.62,1.29,1.41,2,2Z"/><path class="cls-41" d="M2298.14,274.47c-.74-.55-1.27-1.47-2-2,.7.62,1.29,1.41,2,2Z"/><path class="cls-29" d="M752.14,184.47c.52.03,5.77,1.57,6.98,1.96,9.62,3.14-2.54,4.36-5.69,6.31-104.27,64.48-202.5,152.42-307.29,217.73-2.93,1.89-3.91,1.15-2-2,91.02-86.68,191.11-164.04,302-224,3.51-2.88,5.51-2.88,6,0Z"/><path class="cls-72" d="M154.14,808.47v2c-18.95,24.34-38.22,81.55-52,112v-2c13.36-39.51,31.23-76.84,50-114l2,2Z"/><path class="cls-60" d="M92.14,952.47c-4.95-4.68,3.25-16.15,6-22l-6,22Z"/><path class="cls-72" d="M330.14,532.47c3.09-3.88,6.89-8.11,10-12-3.11,3.62-6.56,8.08-10,12Z"/><path class="cls-80" d="M446.14,410.47l-8,6c-.6,1.16-1.27,1.14-2,0,2.7-2.62,5.21-5.34,8-8l2,2Z"/><path class="cls-1" d="M342.14,518.47c2.54-3.11,5.23-6.7,8-10-2.14,2.45-4.91,6.45-8,10Z"/><path class="cls-27" d="M310.14,562.47c-1.69-.39-4.12.26-6,0l10-10c-1.71,3.17-3.54,6.32-4,10Z"/><path class="cls-45" d="M102.14,922.47c-1.41,3.11-2.81,5.48-4,8-1.65-4.68,3.36-8.1,4-10v2Z"/><path class="cls-81" d="M322.14,542.47c1.88-2.3,2.87-4.48,6-8-1.84,2.35-4.07,5.51-6,8Z"/><path class="cls-85" d="M314.14,552.47c2.89-5.35,3.89-5.05,6-8-1.12,1.3-1.19,7.26-6,8Z"/><path class="cls-47" d="M438.14,416.47c-.69,3.64-4.94,3.16-6,4,1.34-1.31,2.63-2.67,4-4h2Z"/><path class="cls-10" d="M1108.14,44.47c-1.18.28-2.85-.3-4,0l-2-2c1.83-.28,5.59-.4,6,2Z"/><path class="cls-41" d="M328.14,534.47c.62-.7,1.38-1.3,2-2-.58.73-1.43,1.27-2,2Z"/><path class="cls-41" d="M340.14,520.47c.61-.71,1.39-1.3,2-2-.59.72-1.42,1.28-2,2Z"/><path class="cls-41" d="M350.14,508.47c.62-.71,1.38-1.3,2-2-.61.71-1.4,1.29-2,2Z"/><path class="cls-41" d="M408.14,444.47c2.75-2.93,5.62-5.45,8-8-2.62,2.67-5.45,5.36-8,8Z"/><path class="cls-41" d="M416.14,436.47c.66-.67,1.34-1.33,2-2-.63.7-1.36,1.31-2,2Z"/><path class="cls-41" d="M418.14,434.47c.66-.67,1.34-1.33,2-2l-2,2Z"/><path class="cls-41" d="M420.14,432.47c.66-.67,1.33-1.33,2-2-.68.65-1.31,1.36-2,2Z"/><path class="cls-41" d="M422.14,430.47c.67-.67,1.33-1.33,2-2-.69.63-1.32,1.35-2,2Z"/><path class="cls-41" d="M424.14,428.47c.67-.67,1.33-1.34,2-2-.7.61-1.3,1.37-2,2Z"/><path class="cls-51" d="M426.14,426.47c.67-.66,1.33-1.34,2-2-.71.6-1.29,1.38-2,2Z"/><path class="cls-87" d="M428.14,424.47c.67-.66,1.33-1.34,2-2-.72.59-1.28,1.4-2,2Z"/><path class="cls-75" d="M430.14,422.47c.67-.66,1.32-1.34,2-2-.72.57-1.27,1.41-2,2Z"/><path class="cls-41" d="M320.14,544.47c.61-.7,1.44-1.28,2-2-.59.72-1.49,1.29-2,2Z"/><path class="cls-34" d="M2734.14,774.47c-6.48-10.04-8.78-15.51-14-26,6.09,9.85,9.69,14.47,14,26Z"/><path class="cls-57" d="M2208.14,214.47c-6.45-3.36-13.72-6.11-20-10,12.22.15,11.4,3.97,20,10Z"/><path class="cls-26" d="M2234.14,230.47c1.37,1.22,1.73,3.79,2,4-7.18,6.27-10.8,5.54-6-4,0-1.63,1.32-1.63,4,0Z"/><path class="cls-103" d="M2526.14,478.47c-6.77-2.29-9.12-10.53-12-14,5.31,5.19,9.33,5.78,12,14Z"/><path class="cls-108" d="M2072.14,140.47c-8.05-3.34-17.83-6.09-26-10v-2c9.38,4.3,16.42,6.94,26,12Z"/><path class="cls-100" d="M2432.14,382.47l-4,2c-.43-3.07-2.02-5.72-4-8,1.52,1.36,4.57,2.82,8,6Z"/><path class="cls-4" d="M2072.14,140.47c9.44,3.92,18.5,8.44,28,12.17.04.9-2.02,1.7-2,1.83-9.15-3.67-17.38-9.45-26-14Z"/><path class="cls-41" d="M2514.14,464.47c-6.16-6.02-12-11.81-18-18,6.86,6.21,11.97,10.74,18,18Z"/><path class="cls-41" d="M2424.14,376.47c-1.01-1.16-4.72-4.83-6-6,2.54,2.21,4.16,4.36,6,6Z"/><path class="cls-81" d="M1930.14,82.47c-30.24-9.94-63.98-20.41-94.77-28.26-2.66-.68-7.58-3.35-9.23.26-1.68-.56-2.99-1.66-4-2l3.99-.02v-1.96c-4.81,1.59-5.65-1.87-5.99-2.02,16.15.03,94.22,25.75,110,34Z"/><path class="cls-40" d="M1942.14,86.47c.08,1.74-1.48,2.87-2,4,1.4-3.82-5.58-5.69-10-8,4.06,1.34,7.97,2.64,12,4Z"/><path class="cls-29" d="M1984.12,790.46l-362.1,255.88-5.84-2.87,143.89-245.87-151.91-56.11,314.18-241.83c6.17-5.68,9.9-.83,6.24,6.24l-118.39,221.58c42.7,16.26,86.94,30.55,130.41,45.53,13.12,4.52,26.35,9.52,40.09,11.9l3.43,5.55Z"/><polygon class="cls-29" points="2352.13 388.48 2234.2 619.34 2406.12 680.43 2041.14 938.43 2182.18 687.52 2030.16 633.5 2352.13 388.48"/><path class="cls-21" d="M754.14,366.47c.76,4.98-1.56,4.27-5.99,3.99-.35-2.4-.35-3.37,1.99-3.99l.99,1.94,3.01-1.94Z"/><path class="cls-90" d="M154.14,810.47v-2h2c-.58.73-1.43,1.27-2,2Z"/><path class="cls-9" d="M1222.14,476.47l-109.99-38.99,321.97-247.01.58,9.35-118.51,221.66,172.99,58.95-.2,4.01-72.79,49.02c18.46,10.78,37.47,20.9,55.55,32.32,2.32,1.47,2.33,4.8,3.45,4.75l25.98-18.02c9.04,6.02-10.25,25.09-8.08,29.99.87,1.98,26.8,23.12,32.2,28.78,8.96,9.39,24.14,26.43,30.87,37.18,8.25-1.45,13.06,14.19,14.84,21.74,5.88,1.97,8.27,8.06,7.16,18.26.3.59,2.67,1.17,3.36,2.58,11.74,23.95,16.27,46.82,20.73,72.33,5.96,34.09,13.18,79.4,8.02,116.19-11.57,82.4-37.6,155.72-92.17,221.36-10.43,12.55-37.82,34.65-44.83,45.64-2.04,3.19-3.68,5.85-3.11,9.88l165.02,54.01c11.81,1.06,6.81-.7,9.73-5.15,8.6-13.06,15.7-27.52,24.63-40.35,2.97-4.27,18.83-19.57,18.57-23.51l-26.86-10.95-.13-4.07,318.05-243.92,2.56,8.5-57.57,109.44,53.48-13.5c54.91-8.27,109.98-13.64,165.59-12.57,8.78.17,18.49,5.75,26.78-1.05l207.18-158.83c5.28-1.56,2.84,7.15,1.85,9.86l-88.88,168.1c102.47,21,205.72,71.02,268.98,156l50.97-84.99-153.94-55.97,277.02-213.08c1.54-.91,2-2.68,2.96-3.95,4.1-1.19,4.64-2.78,7.72,1.18,4.4,5.67,12.3,21.99,8.28,28.82-2.46,8.49-4.99,17.06-9.11,24.91l-78.02,146.52,167.41,58.43c2.24,2.39,2.16,5.22.89,8.16l-230.04,164.15c10.91,30.62,16.81,62.41,17.7,95.39l136.79-103.28c9.64-2.6,8.96,7.91,6.14,14.71l-113.64,214.96c54.88,20.47,110.27,40.45,166.17,59.92,2.23,2.43,2.13,5.25.85,8.17l-296.85,209.02c13.7,25.09,23.15,51.84,31.41,79.04,1.87,6.14,5.01,19.9.29,23.91,1.97,6.74,3.32,13.52,4.06,20.34,4.78,15.01,6.62,26.32,5.09,42.1-.67,6.85-3.79,18.92-8.01,22.62.19,11.11-.19,22.09-1.14,32.95-13.46,108.25-75.71,206.23-165.47,266.53l-56.56,108.44,172.02,55.03-.12,5.84-365.86,256.15,143.97-249.01-153.97-53.01c-1.25-4.62,1.11-3.33,2.53-4.55,7.27-6.26,15.99-11.34,23.46-17.42-1.18-1.38.16-2.72,4-4,1.08-2.17-.43-1.11-2,0-.48,2.61-3.69,2.45-6,2-23.71,3.56-51.41,7.88-75.03,9.97-19.92,1.76-40.99-.7-60.99,3.01l-44.03,83.96,174.05,61.05-367.99,256.01,143.99-249.98-153.96-53.01,131.95-104.99c-75.32-4-149.61-24.35-217.99-56.01-10.13,1.9-26.36-6.33-30-16-25.46-14.42-49.15-30.29-72.65-47.72l-191.34,133.71c-1.39-1.46,9.83-20.11,11.65-23.33,35.55-63.29,74.92-124.55,110.01-188.14l-.46-4.55-26.57-50.1-104.59-36.87,82.98-64.98c1.79-31.65,1.6-63.64,7.1-94.9,5.41-30.69,18.51-59.23,27.88-89.12l-2-2-165.99,115.99,143.99-249.96-150.65-50.39c-4.38-1.49-2.88-4.26-1.34-7.63l-152.63.37c-5.6,4.29-29.26,48.85-27.32,51.53l171.94,60.06-365.99,256.02,141.9-249.89c-16.72-8.89-148.36-45.9-151.89-53.13-2.76-5.66,92.7-66.21,97.72-79.6l-69.78-109.37c-25.77,15.16-48.53,34.97-72.95,52.01-2.34,1.63-3.81,3.83-6.03-.01-2.67-4.61,54.87-83.74,51.54-93.36l-72.51-111.65-80.01-.99v2c14,5.71,28.59,9.62,43.07,13.96,9.17,2.75-2.19,4.54-5.37,6.7-28.01,19.04-54.79,40.14-82.73,59.31-1.71,3.68-.54,8.31-1.51,12.49-7.72,33.26-16.68,68.15-23.99,102.01-1.17,5.43-6.06,11.36-3.47,19.53-1.61,2.56-.94,2.56,2,0,36.76-26.83,81.39-68.58,118.53-90.46,3.09-1.82,5.21-4.42,9.45-3.53l-117.93,231.9,171.94,60.06-367.99,256.01,144.06-248.9-150.71-51.07-1.41-5,112.05-87.02h-241l-60.94,115.91,171.93,60.06-367.98,256.02,144.06-248.9-152.05-54.06,163.97-128.04-18-.98c-2.08-2.12,10.32-50.7,12.01-58.01-1.22-1.75.39-2.89,2-4,.74-7.8,1.56-15.59,2.67-23.34s2.27-15.49,3.99-23.1c22.61-100.07,45.66-200.15,69.03-300.06,1.8-7.71,4.13-15.31,6.52-22.9s5.05-15.11,7.79-22.6c4.35-19.5,7.01-40.16,12-60,.82-2.17,1.25-3.87,0-6,4.04-18.83,11.64-38.92,16-58,15.44-67.55,27.04-143.44,46-210,.08-1.95-.58-2.61-2-2-7.51,5.39-16.66,10.79-24.51,16.09-1.04.7-6.27,9.85-7.47.95l50.02-85.99c15.72-59.47,26.55-119.8,41.97-179.02l-98.64-32.39-3.33-2.63,318.94-245.08c3.62-.02,6.14,3.24,4.15,6.16l-105.12,201.91c69.52-2.04,140.66,2.77,209.99.01.62-1.4-.05-2.73-2-4-18.58-6.17-37.36-12.04-56-18.02l2.95-4.03,319.03-243.95.56,9.32-118.49,221.69c.1,1.77,28.6,11.48,32.92,13.02,19.32,6.92,58.29,22.64,76.52,25.48,18.53,2.89,42.25-.65,61.6.4,21.15,1.14,47.86,3.46,68.92,6.08,6.84-1.14,12.84-.48,18,2,1.75-1.07,3.81-.17,4,2,4.87.46,6.21-.2,4-2-2.98.7-6.28.78-8-2-3.19.89-7.59.26-10-2Z"/><path class="cls-63" d="M2154.14,2306.47c.48-1.07,1.16-.99,2,0,.8,1.61-3.04,3.22-4,4l-4-2c1.07-.16,2.36-2.03,6-2Z"/><path class="cls-93" d="M708.14,1520.47c-1.2.88-1.68,4.95-4.98,4.02l-1.01-1.01,3.99-3.01h2Z"/><path class="cls-92" d="M382.14,1068.47c.1-1.32-.14-2.69,0-4,.07-.67-.13-1.39,0-2,3.9,3.23.34,4.65,0,6Z"/><path class="cls-94" d="M1232.14,478.47c1.75.57,1.72,1.24,0,2-5.56-.92-12.53-1.32-18-2,3,1.61,7.05-1.93,8-2,3.5-.24,6.69,1.37,10,2Z"/><path class="cls-33" d="M1422.67,1495.92l-55.67-87.48,271.12-191.98c-8.25,24.04-19.15,47.07-25.04,71.94s-6.89,51.75-12.79,77.21l-173.13,132.1-4.5-1.79Z"/><path class="cls-33" d="M1604.13,1414.48c2.37,65.6,34.83,123.6,78.08,170.99.04,6.87-37.15,22.19-43.4,28.51l-120.68-39.53,1.57-7.42c29.29-47.03,50.49-103.7,79.95-149.99,1.27-1.99-.19-3.57,4.48-2.57Z"/><path class="cls-33" d="M1420.13,1222.49l-83,139.94c-6.6-7.04-11.17-15.41-15.27-24.24l-47.66-71.17.86-8.65c36.54-13.5,72.81-28.07,106.6-47.54,8.66-2.14,28.42,10.98,38.47,11.66Z"/><path class="cls-33" d="M2494.1,1688.46l-5.06-1.91-44.76-46.8c34.54-26.84,70.48-53.47,97.8-88.33,5.14-6.56,25.9-40.74,28.04-42.1,3.02-1.92,17.61,5.46,22.02,6.15l-98.04,172.99Z"/><path class="cls-2" d="M1240.14,480.47c1.97.7,3.76,2.09,5.99,2.03v1.95c-4.16,1.9-7.81-1.54-9.99-1.98-1.41-1.68-.08-2.35,4-2Z"/><path class="cls-66" d="M1240.14,480.47l-4,2c-1.88-.38-3.57-1.93-4-2v-2c1.66.32,6.66,1.52,8,2Z"/><path class="cls-86" d="M2154.14,2306.47c-.13-2.6,3.78-3.07,3.99-1l-1.99,1c-.67,0-1.33,0-2,0Z"/><path class="cls-58" d="M280.14,1520.47c-.53,2.3-1.93,3.7-2,4l-2-2c1.21-.79,2.09-2.15,4-2Z"/><polygon class="cls-59" points="780.14 1304.47 780.14 1306.47 776.12 1305.47 780.14 1304.47"/><path class="cls-93" d="M826.14,468.47c2.55.85,5.36,1.39,7.99,2.03v1.95c-1.98.1-3.99-.06-5.99.02l-2-4Z"/><path class="cls-30" d="M444.14,794.47l-2-2c1.05-.76,1.58-4.23,3.98-4,1.28,3.23-1.59,4.65-1.98,6Z"/><path class="cls-33" d="M1153.3,797.37c40.39,36.89,33.56,117.35,4.51,159.78-27.2,39.73-77.03,56.54-122.68,63.31l-215,.02,58-259.02c56.76,1.13,118.48-5.05,174.75-.73,31.95,2.45,76.46,14.75,100.43,36.64Z"/><path class="cls-109" d="M1492.14,1776.47l-2-2,3.98-4c1.24,3.24-1.52,4.53-1.98,6Z"/><path class="cls-33" d="M2107.3,1791.37c44.46,39.14,44.89,129.94,13.67,176.93-52.17,78.51-191.63,82.99-237.16-2.5-23.29-43.72-14.47-117.28,16.63-156.06,45.97-57.33,151.39-67.23,206.87-18.38Z"/><path class="cls-33" d="M2174.83,1459.16c-52.42,52.1-150.67,31.45-162.44-45.94-12.46-81.93,37.2-159.44,126.41-144.42,86.99,14.65,88.3,138.41,36.03,190.36Z"/><path class="cls-90" d="M2834.14,1018.47c-.73-.59-1.29-1.41-2-2h2c.02.65-.1,1.37,0,2Z"/><path class="cls-96" d="M1188.14,2878.47l-8-2c3.2.58,6.32,1.7,8,2Z"/><path class="cls-96" d="M1222.14,2884.47l-8-2c3.29.51,6.85,1.83,8,2Z"/><path class="cls-96" d="M1234.14,2886.47l-8-2c3.33.46,7.2,1.9,8,2Z"/><path class="cls-96" d="M1148.14,2870.47c-2.17-.17-5.01.67-6-2,2.19.11,5.01-.63,6,2Z"/><path class="cls-96" d="M1138.14,2868.47c-2.72-.38-4.55,1.21-6-2,2.14.21,5.07-.71,6,2Z"/><path class="cls-96" d="M1166.14,2874.47l-6-2c2.98.56,5.69,1.94,6,2Z"/><path class="cls-96" d="M1176.14,2876.47l-6-2c3.02.56,5.69,1.94,6,2Z"/><path class="cls-96" d="M1198.14,2880.47l-6-2c3.16.55,5.69,1.95,6,2Z"/><path class="cls-96" d="M1210.14,2882.47l-6-2c3.29.54,5.69,1.95,6,2Z"/><path class="cls-96" d="M1156.14,2872.47l-4-2c3.33.53,3.78,1.96,4,2Z"/><path class="cls-33" d="M80.14,982.47c.66-1.45,1.97-3.53,3.02-3.2,17.54,5.36,136.09,41.88,139.33,48.53.74,1.52.63,3.28.45,4.92l-133.44,231.53,288.34-201.65,4.31,1.87c1,.98,1,2.31,0,4,1.87,18.66-1.97,44.3-12,60-17.84,21.77-42.43,42.22-68,54,.31,1.65-.36,2.31-2,2-1.51,9.04-14.91,18.7-24,18,.31,1.64-.36,2.31-2,2-1.53,9.03-14.91,18.7-24,18,.85,1.66-.3,2.27-2,2l-.6,4.3c-26.22,19.03-52.12,38.79-77.7,59.29l-5.7.41c.95,1.63-.06,2.35-2,2-.54,4.07-3.52,7.41-8.92,10.01-5.8,7.35-11.49,10.68-17.08,9.99-2.24,3.63-1.76,6.15,1.54,2.81l145.55,49.72c3.46,1.17,4.32,4.49,3.74,7.78l-137.41,237.41c40.33-28.73,80.7-57.17,121.11-85.32l5.47-.4c2.31-1.43,3.22-.55,2,2l3.42,2.88-11.33,50.52c11.1-.12,16.19,3.08,15.26,9.6-52.65,40.68-104.78,81.66-156.42,122.95l142.22,50.56c3.43,1.21,4.27,4.52,3.68,7.78l-133.88,231.32,345.82-240.11-161.72-57.02c-3.67-1.3-4.6-4.48-3.67-8.07l58.97-112.18,4.65-.25,1.39-4h237.18l2.44,4,1,4.29-108.39,84.52,146.47,49.72c3.46,1.17,4.33,4.49,3.75,7.77l-133.88,231.32,345.83-240.1-161.73-57.03c-3.42-1.15-4.39-4.36-3.92-7.63l112.5-221.23c-39.15,28.09-77.6,56.94-115.33,86.52l-4.3-.15c-.62.83-1.29.81-2,0-5.38-.08-5.28-4.11-4.33-8.77,11.51-42.34,21.64-84.91,30.39-127.72l85.1-61.09-31.49-9.94c-2.5-1.6-4.38-3.77-5.67-6.47-1.75-.57-1.72-1.24,0-2,.02-1.55.43-3.95,1.4-3.98,9.62-.38,76.58-.19,80.15,1.64,26.04,37.18,51.41,76.5,74.97,115.34-.57,5.5-2.36,10.69-5.38,15.59l-44.07,72.47,52.65-38.82c9.44-8.84,17.64-11.78,24.6-8.81l68.19,106.94c.48,6.7-3.2,12.59-11.03,17.67l-83.78,63.61c44.18,16.45,88.99,31.61,134.43,45.47,9.7,1.84,14.55,5.9,14.56,12.19l-131.87,232.23,343.98-240-161.76-57.03c-2.3-.62-3.52-1.97-4.42-4.09-2.58-6.06,21.88-51.47,30.34-55.77l152.56-.26c3.4,1.35,3.75,4.22,3.38,7.6l148.08,49.51c3.44,1.14,4.33,4.45,3.78,7.75l-134.04,233,148.99-104.11,4.27,1.89c2.6-2.63,3.32-1.52,2,2l1.39,4.41c-22.1,59.12-33.18,116.98-32.9,180.92-25.65,21.02-51.55,41.86-77.69,62.52l98.15,35.01c2.43,1.97,28.05,50.83,28.36,54.11.14,1.54.1,3.09.03,4.66-38.29,66.47-76.79,132.53-115.49,198.18,60.35-42.74,121.05-84.38,182.08-124.9,2.22,1.2,4.42,2.43,6.58,3.72,17.44,10.47,40.55,25.58,56.71,37.67,3.54,2.65,6.38,6,8.77,9.71l1.36,4.01c-90.57,70.28-180.69,140.9-270.34,211.85l144,49.58c3.45,1.17,4.32,4.48,3.76,7.76l-133.94,232.54,345.95-240.23-163.79-56.98-3.89-4.29c29.04-63.05,61.95-125.14,95.47-186.14,1.97-3.58,7.92-2.76,11.44-2.12l6.64.11c65.78,26.39,134.19,47.63,205.56,51.56,6.77.26,7.65,2.85,7.2,8.33-42.08,33.02-83.55,66.31-124.39,99.86l144,49.58c3.45,1.17,4.32,4.48,3.76,7.76l-133.94,232.54,345.95-240.23-163.86-58.01c-3.38-1.14-4.34-4.35-3.88-7.63,14.41-28.35,29.39-56.36,44.97-84.03,44.66-2.86,89.27-6.83,133.83-11.91l4.17,2.07c3.42-.95,4.75-.28,4,2-2.86,7.5-9.24,13.84-19.14,19.02,49.8,17.5,99.61,35.59,149.45,54.26.74,1.51.61,3.28.43,4.91l-133.31,231.52,348.12-243.73c-56.57-18.56-113.27-37.69-170.1-57.39l-.18-5.12,56.44-107.67c86.7-58.62,147.21-151.14,163.01-254.88l5.27-8.92,1.19-5.19c-1.76-12.11-.91-22.87,2.57-32.28l90.51,30.39c2.38,1.83,2.95,4.38,2.46,7.29l-133.36,231.52,278.32-195.57,4.32,1.85c2.63.2-.07,3.37,0,4,.98,3.87.31,6.54-2,8-16.05,44.33-36.82,87.04-60,128-.49,1.77-1.16,1.73-2,0-1.17,1.89-2.5,3.22-4,4l-3.38,6.54c-65.95,55.81-134.2,108.65-204.76,158.51l79.26,28.4.88,4.55c6.3,3.02,2.17,3.69,2,6-.46,3.63-2.46,6.97-6,10l-6,8-8,10-6,8-2,2-8,10-2,2-10,12-2,2-8,10-4,4-12,14-6,6-12,14c-1.39,2.05-2.72,2.71-4,2-1.86-4.54-6.28-6.18-10-2l1.34,4.02-309.6,238.98c2.47,1.73,3.89,4.06,4.26,7l3.55,2.84-13.55,9.16-10,6c-37.65,21.94-76.31,41.94-116,60l-4,2-14,6-18,8c-5.46,3.56-9.46,4.23-12,2-4.2,5.67-13.41,2.96-12.89-5.11l117.67-222.87c.11-.51.32-1.95.24-1.9-102.76,78.66-208.5,159.86-310.71,239.55,26.57,10.53,53.29,20.62,80.17,30.28l3.52,4.05c-1.91,2.61-4.3,4.78-7.42,5.79-34.57,11.17-71,21.93-106.58,26.21-.99,2.18-3.34,2.81-7.05,1.89l-131.93-43.37c-3.43-1.11-4.38-4.36-3.92-7.63l117.88-223.59-309.8,237.72c47.53,17.41,95.89,34.37,145.08,50.88,7.55,4.37,1.3,17.91-6.26,16.09-3.76,2.6-11.3,2.94-16,2-3.89,1.93-10.1,1.34-14,0-3.78,1.83-9.94,3.51-14,2-7.58,1.95-16.46,1.38-24,0-8.47,2.31-19.15,3.66-28,2-20.5,2.1-41.49,1.96-62,0-8.24,1.24-20.46,1.73-28-2-7.28,1.35-14.78,1.42-22,0-4.93-.97-9.59-1.64-14-2-5.16,1.45-11.12,2.11-16,0-4.1,1.31-10.45-.09-14-2-2.41,1.36-5.46,1.38-8,0-3.47-.68-6.81-1.34-10-2-3.02,1.14-7.43,2.24-10,0-3.03,1.39-7.76.1-10-2-2.18,1.41-5.86,1.5-8,0-3.53-1.18-8.27-2.68-8.67,1.97-14.81.91-12.26-6.75-5.33-15.97l-2.01-6.04c29.52-57.9,59.79-115.64,90.8-173.21l-218.41,166.94-4.38-1.69-1.27,2.4c-68.06-14.34-134.98-34.48-200.73-60.4-3.02-1.01-5.69-2.34-8-4,.17-1.97-.11-4.02,0-6l.44-9.12c13.2-26.29,25.4-51.06,36.59-74.32-27.29,21.15-54.54,42.41-81.77,63.8-3.65,2.85-7.38,5.12-11.25,1.63-1.94.5-4.6-.17-8-2l-4-2-14-6-24-12-29.58-15.35c-3.22-2.11-1.79-3.34,1.58-4.65,3.71-4.02,7.47-7.98,11.44-11.72,3.96-3.74,7.92-7.46,12.25-10.63,54.54-39.93,109.45-79.63,166.15-116.33l-162.83-57.86c-3.42-1.17-4.36-4.41-3.85-7.69l115.65-218.8-308.54,234.79,144.75,52.65c3.69,1.38,4.49,4.66,3.39,8.23l-51.78,85.41-4.65-.05c-.26,1.18-.66,2-2,2-1.88.17-3.88-.49-6-2-11.1-5.94-21.77-12.61-32-20l-42-28-6-4-6-4c-2.06-2.75-4.96-4.48-8-6-3.01-1.39-6.24-3.1-8-6l-6-4-8-6-8-6-8-6-10-8-8-6c-4.07-1.73-7.08-4.79-10-8l-10-8-2-2-10-8-2-2-10-8-4-4c-4.29-2.61-8.29-5.95-12-10l-6-6-14-12c-2.47-1.69-3.8-3.69-4-6-.36-1.34-2.15-2.88-2-4l-3.47-2.99c27.05-53.05,54.91-106.25,83.58-159.59-43.86,33.65-87.93,67.15-132.22,100.49l-7.89,2.09c-.53.7-1.1,1.3-1.78,1.51-1.24.39-14.03-13.19-16.22-15.51l-2-2-2-2-2-2-2-2-10-12-6-6-10-12-2-2-10-12-2-2-8-10-2-2-6-10-1.17-4.07,224.01-158.38-161.83-58.13c-3.41-1.17-4.36-4.38-3.87-7.66l114.81-221.69-309.56,237.62-4.39-1.67c-.36-.91-2.95-3.1-4-4-9.72-14.35-17.47-29.98-24-46-6.29-9.44-11.62-19.44-16-30l-6-14-2-4-6-14-2-4c-2.12-4.57-3.45-9.24-4-14-7.38-11.6-12.05-23.6-14-36-3.37-1.23-3.73-5.15,0-6l-2-2c-1.19-.26-1.99-.72-2-2-4.61-3.38-32.46-77.07-28.83-79.32.78-.49,1.78-.63,2.83-.68,13.5-15.84,29.66-29.37,48.49-40.57l63.95-44.26c-48.89-16.86-97.69-33.97-146.42-51.32l-4.03-3.85c-4.33-2.24-6.49-11.13-6-16-1.77-1.77-2.23-4.57,0-6l2.13-10.17c34.85-66.67,69.28-132.77,103.28-198.3-36.1,27.55-72.21,55.26-108.35,83.13l-7.07-.66c-7.02,6.52-10.36,5.86-10-2-1.03-2.42-1.46-6.04,0-8-1.85-2.17-3.31-7.07-2-10-1.82-2.6-1.39-7.44,0-10-2.02-4.65-3.47-11.18-2-16-1.45-4.19-1.45-8.85,0-14,.79-1.96,3-3.97,4-6,3.03-3.56,6.11-7.07,9.41-10.36s6.58-6.53,10.26-9.23c39.65-29.16,79.87-57.83,121.03-84.65-44.77-13.69-90.32-29.7-134.83-45.86-2.15-.78-4.15-2.02-6.13-3.34s-3.91-2.92-5.75-4.55c-1.67-.33-1.46-2.96,0-4,1.93-6.31,1.62-7.51,2-14-1.3-5.04-2.3-11.54,0-16-1.56-3.61-.16-10.53,2-14-1.54-1.79-.63-5.61,2-6-.36-4.94,1.21-9.77,3-14.33l86.25-164.5c-23.08,15.38-45.27,32.12-66.55,50.2l-4.7-1.37-3.17.5c4.22-29.35,11.52-60.58,18.91-90.09.7-2.79,1.57-3.1,4.26-2.4.79-7.44,6.55-13.89,17.27-19.36l31.94-21.76-29.83-9.89-3.38-4.99-3.57-1.27c4.77-21.38,11.3-42.29,19.57-62.73Z"/><path class="cls-64" d="M670.14,2672.47c-15.89-9.51-27.09-17.39-42-28,14.52,9.19,27.91,18.2,42,28Z"/><path class="cls-70" d="M104.14,1980.47c3.55,12.61,9.43,23.89,14,36-.57,1.7-1.24,1.68-2,0-5.16-11.82-11.1-23.69-16-36,.64-5.31,2.48-5.08,4,0Z"/><path class="cls-35" d="M788.14,2734.47c-3.47,4.17-.6,4.38,2.59,6.41,6.98,4.45,17.71,9.56,25.41,13.59-13.78-6.27-22.64-10.95-36-18l8-2Z"/><path class="cls-56" d="M504.14,2548.47v2c-5.35-4.29-7.65-7.65-12-12,4.39,3.61,7.14,5.52,12,10Z"/><path class="cls-13" d="M702.14,2692.47c-12.19-4.13-21.6-12.77-32-20,10.59,6.34,21.36,13.42,32,20Z"/><path class="cls-38" d="M854.14,2772.47c-4.46-1.99-9.21-3.79-14-6,4.32,1.86,9.72,4.25,14,6Z"/><path class="cls-89" d="M10.14,1592.47h-2c-.24-2.23-1.62-5.57-2-10,.57-1.75,1.24-1.72,2,0,.17,2.27,1.67,5.98,2,10Z"/><path class="cls-46" d="M122.14,2030.47c-2.1-4.61-4.02-9.46-6-14h2c1.62,4.29,2.62,10.51,4,14Z"/><path class="cls-64" d="M570.14,2602.47c-5.48-3.64-5.07-3.2-10-8,5.52,3.65,5.08,3.2,10,8Z"/><path class="cls-50" d="M518.14,2560.47c-4.03-3.16-5.32-3.46-10-8,4.15,3.19,5.4,3.66,10,8Z"/><path class="cls-42" d="M330.14,2370.47c-2.82-3.34-5.43-6.82-8-10h2c3.25,2.65,4.28,7.32,6,10Z"/><path class="cls-103" d="M530.14,2570.47c-4.16-3.19-5.45-3.76-10-8,4.17,3.2,5.46,3.77,10,8Z"/><path class="cls-97" d="M542.14,2580.47c-4.47-3.35-5.19-3.3-10-8,4.6,3.39,5.28,3.52,10,8Z"/><path class="cls-14" d="M608.14,2630.47c-4.42-.35-6.94-3.41-10-6h2c4.42,2.77,4.62,3.33,8,6Z"/><path class="cls-5" d="M6.14,1556.47h-2c.07-6.53-.45-7.9,2-14,.32,4.59-.47,9.46,0,14Z"/><path class="cls-81" d="M560.14,2594.47c-4.11-2.72-4.17-2.69-8-6,4.12,2.72,3.75,1.86,8,6Z"/><path class="cls-85" d="M616.14,2636.47c-2.48-1.92-5.34-3.9-8-6l5.1,1.88c1.52,1.01,2.23,3.68,2.9,4.12Z"/><path class="cls-23" d="M594.14,2620.47c-4.76-2.89-4.11-2.62-8-6,4.46,2.82,4.1,2.59,8,6Z"/><path class="cls-14" d="M586.14,2614.47c-4.46-2.82-4.12-2.63-8-6,4.46,2.82,4.12,2.63,8,6Z"/><path class="cls-11" d="M578.14,2608.47c-4.43-2.8-3.76-1.87-8-6,4.08,2.71,4.15,2.66,8,6Z"/><path class="cls-34" d="M552.14,2588.47c-.75-.5-3.06-.55-5.07-1.89-2.44-1.62-3.35-4.61-4.93-6.11,4.17,3.12,6.02,4.56,10,8Z"/><path class="cls-71" d="M866.14,2776.47v2c-3.03-1.36-5.72-2.98-8-4,.86.3,7.59,2.03,8,2Z"/><path class="cls-55" d="M600.14,2624.47h-2c-1.76-1.49-2.84-2.99-4-4,2.55,1.55,4.19,2.87,6,4Z"/><path class="cls-79" d="M622.14,2640.47c-2.75-1.69-3.2-1.83-6-4,2.32,1.53,3.35,1.99,6,4Z"/><path class="cls-99" d="M628.14,2644.47c-2.17-1.38-4.41-3.02-6-4,1.22.93,3.92,2.52,6,4Z"/><path class="cls-4" d="M858.14,2774.47c-1.76-.62-2.85-1.53-4-2,1.42.63,2.71,1.42,4,2Z"/><path class="cls-4" d="M124.14,2034.47c-.63-1.33-1.34-2.56-2-4,.36.91,1.29,2.17,2,4Z"/><path class="cls-41" d="M332.14,2372.47c-.63-.7-1.39-1.28-2-2,.44.69,1.45,1.25,2,2Z"/><path class="cls-41" d="M472.14,2520.47c-.96-1.15-3.51-1.67-4.91-3.96-.6-.99.94-1.94.91-2.04,1.42,1.47,2.69,4.97,4,6Z"/><path class="cls-41" d="M492.14,2538.47c-2.02-2.02-3.98-3.94-6-6,2.67,2.2,4.41,4.69,6,6Z"/><path class="cls-41" d="M508.14,2552.47c-1.09-.84-2.96-1.17-4-2v-2c1.47,1.35,2.63,2.67,4,4Z"/><path class="cls-41" d="M520.14,2562.47c-.69-.64-1.32-1.35-2-2,.73.57,1.27,1.44,2,2Z"/><path class="cls-41" d="M532.14,2572.47c-.67-.66-1.31-1.36-2-2,.73.56,1.28,1.47,2,2Z"/><path class="cls-103" d="M2796.14,1994.47c-14.41,44.02-36.47,85.18-58,126-.61,1.01-1.28.99-2,0,21.08-42,42.24-84.43,60-128,1.01.61.98,1.28,0,2Z"/><path class="cls-103" d="M2174.14,2708.47c-35.92,23.97-76.53,42.53-116,60,38.01-19.71,78.21-38.87,116-60Z"/><path class="cls-32" d="M2512.14,2440.47c5.03-7.35,5.46-7.7,12-14-4.67,5.76-4.71,7.89-12,14Z"/><path class="cls-84" d="M2530.14,2420.47c4.44-5.38,6.68-8.37,12-14-4.43,5.29-6.36,8.24-12,14Z"/><path class="cls-3" d="M2202.14,2692.47c-7.19,4.42-10.13,6.29-18,10,3.91-2.72,14.41-8.23,10-12,2.59.87,5.37,1.25,8,2Z"/><path class="cls-14" d="M2556.14,2390.47c3.98-5.12,5.16-6.83,10-12-4.03,5.26-5.24,6.85-10,12Z"/><path class="cls-36" d="M2054.14,2770.47c-6.42,3.5-7.9,3.62-14,6,5.78-2.82,8.31-3.72,14-6Z"/><path class="cls-18" d="M2040.14,2776.47c-7.47,3.65-8.31,5.86-18,8,6.56-3.05,10.79-5.19,18-8Z"/><path class="cls-37" d="M2022.14,2784.47c-3.27,1.52-6.84,6.3-12,6v-4c3.17.03,8.63-1.26,12-2Z"/><path class="cls-32" d="M2546.14,2402.47c2.96-3.72,4.11-5.71,8-10-3.2,4.12-3.23,5.21-8,10Z"/><path class="cls-64" d="M2598.14,2338.47c1.76-3.02,2.69-7.17,6-10-.02.23,2.3,1.33,1.11,3.82-1.41,2.98-5.23,4.27-7.11,6.18Z"/><path class="cls-64" d="M2584.14,2356.47c3.61-5.3,3.19-5.08,8-10-3.65,5.52-3.79,5.33-8,10Z"/><path class="cls-49" d="M2568.14,2376.47c3.21-4.24,4.11-5.64,8-10-3.25,4.27-3.68,5.4-8,10Z"/><path class="cls-36" d="M2184.14,2702.47c-4.51,3.14-5.5,3.48-10,6,4.39-2.93,4.33-3.32,10-6Z"/><path class="cls-85" d="M2578.14,2364.47c2.44-3.33,2.51-4.12,6-8-2.66,3.91-1.64,3.68-6,8Z"/><path class="cls-81" d="M2592.14,2346.47c2.72-4.12,1.8-3.73,6-8-.6,1.02-.37,3.04-1.89,5.11-1.13,1.53-3.21,1.98-4.11,2.89Z"/><path class="cls-45" d="M2796.14,1994.47v-2c1.01-2.48,1.17-5.44,2-8,.3,2.75,4.4,6.02-2,10Z"/><path class="cls-4" d="M2058.14,2768.47c-1.3.68-2.8,1.34-4,2,.87-.35,2.49-1.33,4-2Z"/><path class="cls-41" d="M2576.14,2366.47c.56-.73,1.47-1.27,2-2-.66.66-1.38,1.31-2,2Z"/><path class="cls-41" d="M2566.14,2378.47c.56-.74,1.45-1.27,2-2-.65.69-1.36,1.31-2,2Z"/><path class="cls-41" d="M2554.14,2392.47c.57-.73,1.43-1.27,2-2-.64.69-1.37,1.31-2,2Z"/><path class="cls-41" d="M2542.14,2406.47c1.46-1.75,3.31-3.13,4-4-1.29,1.29-2.79,2.72-4,4Z"/><path class="cls-41" d="M2524.14,2426.47c2.23-2.75,4.66-4.37,6-6-2.06,2.1-3.87,3.95-6,6Z"/><path class="cls-41" d="M2508.14,2442.47c.97-.77,3.54-1.32,4-2-.68.57-1.32,3.32-3.01,3.96l-.99-1.96Z"/><path class="cls-76" d="M64.14,1046.47c12.64,2.9,25.04,8.89,39,12.04,9.49,2.14-1.54,4.67-3.66,6.22-14.18,10.36-40.57,25.89-51.34,37.74-4.04,3.59-5.37,2.92-4-2,4.5-17.92,8.85-36.28,14-54,2.94-5.4,3.08-5.37,6,0Z"/><path class="cls-42" d="M1132.14,2862.47c5.39.5,5.02,2.18,0,4-6.27,3.43-14.27,2.1-24-4-58.91-13.83-116.44-35.72-174-54-1.37-1.29-2.58-2.77-4-4,33.32,7.24,71.65,24.82,106.01,34.99,25.28,7.49,65.48,20.7,90.45,23.7,2.07.25,3.7.84,5.55-.69Z"/><path class="cls-57" d="M48.14,1102.47c-1,1.1-3.4,1.56-3.82,3.63-5.8,26.28-11.42,52.61-16.52,79.06-.52,2.71-3.25,7.65.34,9.31-1.52,1.21-2.72,5.39-6,6,5.64-34.08,13.62-66.67,22-100l4,2Z"/><path class="cls-107" d="M74.14,1890.47c-1.9,8.48,3.7,21.79,6.58,30.42,4.34,12.96,12.79,39.31,19.42,49.58v2c-.57,1.75-1.24,1.72-2,0-10.42-27-21.4-53.95-30-82h6Z"/><path class="cls-106" d="M80.14,982.47c-2.9,17.53-13.35,36.89-16.75,54.4-.69,3.56-1.93,6.28.75,9.6-1.69-.39-4.12.26-6,0,6.65-22.87,13.02-45.91,22-68-.14,1.29.21,2.76,0,4Z"/><path class="cls-103" d="M178.14,2142.47c-9.43-8.09-18.65-29.72-24-44v-2c8.07,15.27,16.66,30.34,24,46Z"/><path class="cls-88" d="M406.14,2450.47c-.81.82-1.21,2.9-2,4-6.43-6.83-10.25-11.19-16-18,5.47,4.94,11.45,11.88,18,14Z"/><path class="cls-73" d="M8.14,1572.47c-.57,1.75-1.24,1.72-2,0-.3-4.36-2.07-9.23-2-16,.57-1.75,1.24-1.72,2,0,.53,5.15,1.53,10.12,2,16Z"/><path class="cls-20" d="M8.14,1330.47c-.54,2.47-1.74,11.34-2,14-.57,1.75-1.24,1.72-2,0,.17-6.05,1.62-10.04,2-14,.57-1.75,1.24-1.72,2,0Z"/><path class="cls-102" d="M36.14,1750.47c-1.1-.29-2.73.19-4,0-1.13-5.28-2.93-10.64-4-16,.57-1.75,1.24-1.72,2,0,.5,3.94,4.11,11.98,6,16Z"/><path class="cls-8" d="M486.14,2532.47c-5.62-4.62-7.92-4.71-14-12,6.16,4.82,7.89,5.76,14,12Z"/><path class="cls-65" d="M102.14,1972.47l2,2c.45,1.64-.46,4.38,0,6h-4c-1.23-3.1-1.26-6.07-2-8h4Z"/><path class="cls-64" d="M352.14,2396.47c-4.94-5.24-5.94-6.7-10-12,4.84,5.17,6.02,6.89,10,12Z"/><path class="cls-49" d="M380.14,2428.47c-4.6-4.83-6.67-8.16-10-12,4.39,4.71,6.7,8.17,10,12Z"/><path class="cls-64" d="M364.14,2410.47c-5.37-5.38-6.03-7-10-12,4.5,4.86,6.4,7.64,10,12Z"/><path class="cls-31" d="M138.14,2066.47c-3.02-6-3.67-8.08-6-14,2.64,5.36,3.98,9.63,6,14Z"/><path class="cls-105" d="M130.14,2048.47c-2.67-5.65-3.73-8.15-6-14,2.62,5.53,3.78,8.57,6,14Z"/><path class="cls-39" d="M6.14,1360.47c-3.43-3.22-2.13-11.11-2-16h2c-.51,5.16.3,10.76,0,16Z"/><path class="cls-69" d="M340.14,2382.47c-4.42-4.7-4.59-5.33-8-10,4.01,4.44,4.76,5.71,8,10Z"/><path class="cls-45" d="M930.14,2804.47c-3.28-.71-6.76-.9-10.01-2.04-.34-1.44,1.99-1.76,2.01-1.96,3.86,0,5.42,1.77,8,4Z"/><path class="cls-83" d="M8.14,1582.47h-2c-.28-3.29.22-6.7,0-10h2c.26,3.3-.25,6.7,0,10Z"/><path class="cls-4" d="M840.14,2766.47c-8.86-3.8-15.62-7.61-24-12,8.25,3.75,15.99,8.31,24,12Z"/><path class="cls-4" d="M132.14,2052.47c-.66-1.35-1.33-2.59-2-4,.4.97,1.28,2.17,2,4Z"/><path class="cls-4" d="M154.14,2096.47v2c-7.43-9.55-11.01-21.21-16-32,5,9.96,10.76,20.09,16,30Z"/><path class="cls-41" d="M342.14,2384.47c-.64-.69-1.35-1.31-2-2,.55.72,1.44,1.27,2,2Z"/><path class="cls-41" d="M354.14,2398.47c-.64-.69-1.35-1.31-2-2,.57.73,1.42,1.27,2,2Z"/><path class="cls-41" d="M370.14,2416.47c-1.79-1.92-4.09-4.08-6-6,1.25,1.51,3.91,3.59,6,6Z"/><path class="cls-53" d="M382.14,2430.47c-.66-.68-1.35-1.32-2-2,.61.7,1.38,1.29,2,2Z"/><path class="cls-41" d="M384.14,2432.47c-.67-.66-1.34-1.32-2-2,.61.7,1.38,1.29,2,2Z"/><path class="cls-41" d="M386.14,2434.47c-.69-.64-1.33-1.34-2-2,.61.7,1.38,1.29,2,2Z"/><path class="cls-41" d="M388.14,2436.47c-.7-.63-1.31-1.36-2-2,.6.7,1.39,1.27,2,2Z"/><path class="cls-57" d="M1894.14,2832.47l-10,4-2,2-12,2-2,2c-3.45,1.05-8.5.98-12,2l-2,2c-3.54,1.02-8.42,1.01-12,2l-2,2-10,2c-18.73,4.22-37.25,9.93-56,14v-4c38.31-8.4,78.16-16.25,114-32,1.97.69,4.21.73,6,2Z"/><path class="cls-20" d="M1578.14,2894.47c-.28.48.27,1.44,0,2l-2,2c-1.31.12-2.68-.11-4,0-3.29.29-6.71-.27-10,0-1.75-.57-1.72-1.24,0-2,3.4-.27,10.45-3.99,16-2Z"/><path class="cls-96" d="M1854.14,2846.47l2-2c-.15.04-.76,1.64-2,2Z"/><path class="cls-29" d="M564.14,2404.47c39.95-79.67,93.91-155.92,136.44-234.56l1.69-6.26-152.11-54.15,321.97-245.02-117.97,231.96,171.98,60c-2.27.31-4.81.91-6.66,2.29-113.28,84.72-234.53,169.77-351.34,249.74l-4,2c-.68.61-1.23,1.52-2,2-5.57,1.41-1.45-6.23,2-8Z"/><polygon class="cls-29" points="1266.13 1824.48 1148.15 2056.44 1320.13 2116.44 954.15 2372.46 1098.14 2122.49 944.16 2069.5 1266.13 1824.48"/><path class="cls-29" d="M990.14,2794.47l139.96-239-153.94-55.97,321.97-245.02.54,7.37c-40.08,74.53-80.97,148.84-118.52,224.6l171.99,59.99c-120.98,81.52-238.32,168.57-357.99,252.04-8.11,9.06-11.48,4.62-4-4Z"/><path class="cls-16" d="M1482.14,2900.47c1.35.22,2.22.41,2,2-21.2.45-42.79.4-64,0-1.75-.57-1.72-1.24,0-2,20.56.28,41.45.5,62,0Z"/><path class="cls-22" d="M1510.14,2898.47c1.34.23,2.2.43,2,2-6.7.25-15.59,1.81-24,2-1.33.03-2.67-.03-4,0l-2-2c7.61-.18,18.93-1.61,28-2Z"/><path class="cls-48" d="M1420.14,2900.47v2c-7.69-.15-15.46.34-23.16.08-2.59-.09-4.55-2.07-4.84-2.08-1.75-.57-1.72-1.24,0-2,9.34.18,20.47,1.9,28,2Z"/><path class="cls-16" d="M1370.14,2898.47c7.29-.12,14.71-.14,22,0v2c-11.93-.51-24.05.39-35.99-.02,1.15-3.77,10.6-1.92,13.99-1.98Z"/><path class="cls-12" d="M1548.14,2896.47c1.75.57,1.72,1.24,0,2-3.33.23-8.54,1.71-14,2-1.75-.57-1.72-1.24,0-2,2.67-.13,9.2-1.64,14-2Z"/><path class="cls-48" d="M1340.14,2896.47c1.75.57,1.72,1.24,0,2-6.01-.16-10.15-1.66-14-2-1.75-.57-1.72-1.24,0-2,5.45.22,11.01,1.85,14,2Z"/><path class="cls-98" d="M1534.14,2898.47v2c-7.28.38-14.71-.27-22,0l-2-2c7.95-.34,16.05.38,24,0Z"/><path class="cls-12" d="M1298.14,2892.47c1.34,1.03.67,1.7-2,2-4.13-.27-6.74-1.87-8-2-1.75-.57-1.72-1.24,0-2,4.62.25,8.14,1.86,10,2Z"/><path class="cls-16" d="M1280.14,2890.47c2.66.1,5.35-.14,8,0v2c-5.22-.52-10.74.39-15.99-.02v-1.96s7.99-.02,7.99-.02Z"/><path class="cls-5" d="M1356.14,2896.47c-3.22,3.43-11.11,2.13-16,2v-2c5.29.27,10.69-.08,16,0Z"/><path class="cls-16" d="M1562.14,2896.47v2c-4.61.37-9.38-.32-14,0v-2c4.61-.35,9.39.37,14,0Z"/><path class="cls-6" d="M1308.14,2892.47c-2.03,3.14-8.39,2.24-12,2l2-2c3.3.25,6.69-.16,10,0Z"/><path class="cls-90" d="M10.14,1600.47l2.02,6c2.34-2.16,5.45-2.68,7.98-4-1.22,3.99-5.69,4.21-8,6-3.01-1.39-1.93-5.37-2-8Z"/><path class="cls-9" d="M248.14,1224.47c.69-.63,1.26-1.43,2-2l1.96.99-1.97,2.05-1.99-1.04Z"/><path class="cls-9" d="M274.14,1204.47c.73-.56,1.26-1.43,2-2l1.96.99-1.97,2.05-1.99-1.04Z"/><path class="cls-9" d="M300.14,1184.47c.73-.56,1.26-1.43,2-2l1.96.99-1.97,2.05-1.99-1.04Z"/><path class="cls-9" d="M162.14,1290.47c.59-.73,1.41-1.29,2-2l1.96.99c-3.47,4.94-3.72.92-3.96,1.01Z"/><path class="cls-43" d="M990.14,2794.47l-4,7.98c3.55.8,5.04-2.41,8-3.98-2.8,4.83-5.82,8.82-9.95,3.01l5.95-7.01Z"/><path class="cls-7" d="M562.14,2412.47c-.09.06.19,2.13-.99,1.96-5.43-.77-1.93-8.81,2.99-9.96-1.14,2.28-3.77,4.05-4.02,6.96l2.02,1.04Z"/><path class="cls-7" d="M568.14,2408.47c-1.23.84-2.08,2.14-4,2,1.27-1.14,2-2.18,4-2Z"/><polygon class="cls-90" points="710.14 2694.47 708.14 2694.47 710.14 2692.47 710.14 2694.47"/><path class="cls-90" d="M2732.14,2124.47h-2c1.25-1.11,1.11-2.49,4-4l-2,4Z"/><path class="cls-107" d="M104.14,1974.47c-.74-.59-1.33-1.34-2-2,.68.42,1.82,1.34,2,2Z"/><path class="cls-90" d="M102.14,1972.47c-.41-.25-1.33.17-2,0v-2c.39.61,1.37,1.38,2,2Z"/><polygon class="cls-9" points="136.14 1310.47 138.1 1311.46 135.12 1314.43 136.14 1310.47"/></svg>