<?xml version="1.0" encoding="UTF-8"?><svg id="Layer_2" xmlns="http://www.w3.org/2000/svg" xmlns:xlink="http://www.w3.org/1999/xlink" viewBox="0 0 80.22 80.22"><defs><style>.cls-1,.cls-2,.cls-3{fill:none;}.cls-2{stroke-width:10px;}.cls-2,.cls-3{stroke:#000;stroke-linecap:round;stroke-linejoin:round;}.cls-3{stroke-width:8px;}.cls-4{clip-path:url(#clippath);}</style><clipPath id="clippath"><rect class="cls-1" width="80.22" height="80.22"/></clipPath></defs><g id="Layer_1-2"><g class="cls-4"><path d="M35.3,71.71c21.01,3.28,39.55-14.83,36.48-35.93-1.83-14.69-14.24-26.67-29.09-27.57C19.18,6.57,1.54,30.39,10.47,52.32c4.07,10.28,13.91,17.81,24.82,19.39h0ZM23.17,64.23c-2.51-.01-3.96-3.46-5.02-6.05-2.43-6.52-3.49-14.09-2.76-21.11.71-6.85,3.44-13.47,7.82-18.75,16.04-19.37,41.61-5.69,44.58,16.57,1.2,8.39-.61,19.71-8.01,24.57-5.36,3.3-12.38,1.69-18.1.3-3.19-.73-6.72-1.98-9.84-.89-1.17.42-2.18,1.18-3.14,1.95-1.56,1.2-3.55,3.34-5.53,3.41h0Z"/><path d="M41.76,40.11c3.7,0,6.13-1.48,6.62-3.78.65-2.84-1.44-6.09-6.52-6.14-5.77-.02-7.86,4.18-6.28,7.19.91,1.76,3.28,2.73,6.17,2.73h0Z"/><line class="cls-2" x1="54.25" y1="48.98" x2="54.25" y2="48.98"/><path class="cls-3" d="M32.78,24.59c0-.14.02-.29.02-.43"/><path class="cls-3" d="M54.25,24.39s.02-.02.02-.03"/></g></g></svg>